<svg width="100" height="100" viewBox="0 0 100 100" fill="none" xmlns="http://www.w3.org/2000/svg">
<path d="M40.8889 87.9524H59.1111C59.1111 92.9286 55.0111 97 50 97C44.9889 97 40.8889 92.9286 40.8889 87.9524ZM91 78.9048V83.4286H9V78.9048L18.1111 69.8571V42.7143C18.1111 28.6905 27.2222 16.4762 40.8889 12.4048V11.0476C40.8889 6.07143 44.9889 2 50 2C55.0111 2 59.1111 6.07143 59.1111 11.0476V12.4048C72.7778 16.4762 81.8889 28.6905 81.8889 42.7143V69.8571L91 78.9048ZM72.7778 42.7143C72.7778 30.0476 62.7556 20.0952 50 20.0952C37.2444 20.0952 27.2222 30.0476 27.2222 42.7143V74.381H72.7778V42.7143Z" fill="#878787"/>
</svg>
